<svg version="1.1" id="Layer_1" xmlns="http://www.w3.org/2000/svg" xmlns:xlink="http://www.w3.org/1999/xlink" x="0px" y="0px"
	 width="100%" viewBox="0 0 348 96" enable-background="new 0 0 348 96" xml:space="preserve">
<path fill="#000000" opacity="1.000000" stroke="none" 
	d="
M1.000000,11.000000 
	C1.000000,7.668313 1.000000,4.336626 1.000000,1.003705 
	C116.941063,1.002470 232.882126,1.002470 348.911591,1.002470 
	C348.911591,32.925034 348.911591,64.850388 348.911591,96.887878 
	C233.000061,96.887878 117.000053,96.887878 1.000018,96.892136 
	C1.000000,69.243370 1.000000,41.590340 1.447485,13.468514 
	C6.054417,13.435530 10.213864,13.871346 14.373311,14.307161 
	C14.361620,14.721247 14.349929,15.135332 14.338238,15.549417 
	C12.498007,16.583445 10.657775,17.617472 7.708444,19.274702 
	C10.106497,20.240376 11.245375,20.691715 12.378717,21.156546 
	C20.265636,24.391296 22.998154,28.483635 22.999306,37.072380 
	C23.001476,53.228886 22.993019,69.385399 23.010277,85.541893 
	C23.012146,87.292465 23.154217,89.042892 23.225016,90.651611 
	C30.111073,90.651611 36.363495,90.651611 43.128456,90.651611 
	C43.128456,75.300652 43.128456,60.289547 43.128456,44.066441 
	C51.200417,53.839661 58.459644,62.628857 66.020332,71.783043 
	C73.723564,62.509182 80.812202,53.975227 87.900841,45.441273 
	C88.261391,45.587261 88.621941,45.733250 88.982491,45.879242 
	C88.982491,60.741192 88.982491,75.603142 88.982491,90.663345 
	C95.936127,90.663345 102.323242,90.663345 108.676010,90.663345 
	C109.342094,83.316216 109.342316,83.318481 102.410835,83.994408 
	C101.421181,84.090912 100.428658,84.159767 99.436607,84.229187 
	C98.726204,84.278893 98.014359,84.308189 97.303154,84.346588 
	C108.854012,80.078613 108.854012,80.078613 108.079102,77.119530 
	C104.546501,77.862869 101.001038,78.608925 96.581238,79.538956 
	C100.540245,75.709724 106.818581,78.131851 109.115082,73.459015 
	C108.906403,72.952728 108.697723,72.446449 108.489044,71.940163 
	C105.034348,72.607529 101.579651,73.274895 98.124954,73.942253 
	C98.053169,73.631149 97.981384,73.320045 97.909599,73.008942 
	C100.471817,72.195099 103.034035,71.381264 105.528160,70.589050 
	C104.067039,65.003418 99.928787,70.066940 96.695679,68.038841 
	C99.658707,67.197258 102.196701,66.960014 104.157654,65.771057 
	C105.817513,64.764656 110.596031,66.259155 108.484901,61.290058 
	C104.788788,62.084995 101.087944,62.880951 96.393097,63.890690 
	C100.277122,59.560661 106.957520,62.348724 109.669334,55.795940 
	C104.888809,56.780048 101.528038,57.471893 98.167267,58.163738 
	C98.091019,57.857452 98.014763,57.551170 97.938515,57.244888 
	C101.736839,55.864155 105.535164,54.483421 109.333488,53.102688 
	C109.124847,52.418648 108.916206,51.734604 108.707565,51.050564 
	C105.029846,51.674229 101.352127,52.297894 97.674408,52.921558 
	C97.594635,52.548050 97.514870,52.174545 97.435104,51.801041 
	C101.088165,50.777489 104.741226,49.753933 108.856659,48.600830 
	C105.132294,43.343521 100.833565,48.838005 98.283821,47.948544 
	C97.819672,43.525177 97.430893,39.820091 97.429291,36.049782 
	C101.233658,33.751133 106.740501,35.695133 109.051979,31.251326 
	C108.864250,30.708738 108.676514,30.166149 108.488777,29.623560 
	C104.992050,30.471243 101.495316,31.318926 97.765656,32.050476 
	C97.392242,31.637705 97.251755,31.341064 97.448975,30.875725 
	C101.079048,29.739847 104.371414,28.772669 107.663780,27.805492 
	C107.696632,27.284399 107.729485,26.763306 107.762337,26.242214 
	C106.344116,25.897253 104.885796,25.158152 103.516830,25.297417 
	C101.327553,25.520130 99.197571,26.325848 97.062637,26.499180 
	C100.239304,25.069794 103.467514,24.194294 106.514565,22.894203 
	C107.621033,22.422110 108.294960,20.936249 109.166237,19.912939 
	C108.815361,19.640137 108.464478,19.367332 108.113594,19.094530 
	C104.557335,19.854399 101.001068,20.614265 97.444809,21.374134 
	C99.776031,19.680899 102.295799,18.644341 104.917946,18.139814 
	C108.368637,17.475864 109.893280,15.962690 108.391495,12.000410 
	C104.016930,12.000410 99.545982,12.125951 95.086281,11.956072 
	C92.135689,11.843678 90.524811,13.008630 88.662376,15.409489 
	C81.363586,24.818392 73.607430,33.872501 65.941895,43.154434 
	C59.052944,34.650982 52.092548,26.750546 45.933643,18.268162 
	C39.401913,9.272297 30.653938,6.043703 20.208408,7.123291 
	C13.741132,7.791711 7.398554,9.666657 1.000000,11.000000 
M279.490509,88.153168 
	C290.471893,91.488472 301.248474,84.945541 301.946045,74.819328 
	C302.616028,65.093781 302.702271,55.326851 302.983795,45.576336 
	C303.082611,42.153667 302.999512,38.725746 302.999512,35.220322 
	C299.304382,35.220322 296.354523,35.220322 293.467743,35.220322 
	C293.077332,36.615921 292.748901,37.789940 292.420471,38.963959 
	C292.097107,39.526711 291.773712,40.089462 291.450348,40.652214 
	C288.900116,34.301273 284.191559,35.234756 279.647156,34.889847 
	C273.835815,34.448776 270.773682,38.238064 267.825623,41.876247 
	C263.789825,46.856796 263.113068,59.687321 269.034515,66.428192 
	C272.027588,69.835434 275.898956,72.469398 280.620056,71.877029 
	C284.793884,71.353317 288.836731,69.785683 293.072021,68.642632 
	C292.903442,69.728355 292.824219,71.538124 292.324982,73.223473 
	C290.395325,79.737656 282.144165,83.128929 278.357361,78.373146 
	C274.490601,73.516930 270.551788,75.352058 266.140564,75.323410 
	C267.652252,82.683121 271.734039,86.796982 279.490509,88.153168 
M163.530930,63.975266 
	C174.676498,50.151268 169.006622,33.053352 152.072083,27.260069 
	C145.196472,24.907932 137.121353,26.062157 129.357498,25.607183 
	C129.357498,41.233971 129.357498,55.928219 129.357498,71.000046 
	C135.513031,71.000046 141.317947,70.882607 147.116028,71.031738 
	C153.429596,71.194122 158.739334,69.169395 163.530930,63.975266 
M184.067642,60.206577 
	C183.703766,59.006111 183.339905,57.805649 182.778824,55.954567 
	C191.746979,55.954567 200.160294,55.954567 209.037918,55.954567 
	C208.927231,48.661827 208.254028,42.207298 202.006134,38.044319 
	C195.433731,33.665123 188.300385,33.446316 181.435669,36.975216 
	C174.703140,40.436157 173.106232,46.510952 172.792877,53.967972 
	C172.131805,69.700935 189.102646,75.676384 199.621521,70.054398 
	C202.859100,68.324028 206.783844,65.682648 204.523880,61.703133 
	C202.353912,57.882114 198.473862,60.130112 195.461975,62.034985 
	C191.492950,64.545189 187.800674,64.382538 184.067642,60.206577 
M343.181519,41.608841 
	C338.404053,34.106838 330.072662,32.666092 320.748596,37.732285 
	C318.062653,32.593109 313.880646,35.772221 310.326660,35.272469 
	C310.326660,47.427139 310.326660,59.009174 310.326660,70.571472 
	C313.702087,70.571472 316.732574,70.571472 320.006165,70.571472 
	C320.006165,63.994061 319.871002,57.839069 320.046539,51.692955 
	C320.202606,46.227470 323.149323,43.000656 327.515930,43.009331 
	C332.052094,43.018345 334.990479,46.547440 334.997864,52.020622 
	C335.006317,58.274570 334.999817,64.528542 334.999817,70.670670 
	C338.737000,70.670670 341.661346,70.670670 345.605194,70.670670 
	C344.944580,60.939240 344.309723,51.587193 343.181519,41.608841 
M226.028534,63.922573 
	C222.454010,59.595745 218.307129,57.234188 212.655563,59.791916 
	C212.776505,69.211891 224.035461,74.496323 234.190536,71.040932 
	C239.663315,69.178741 243.293671,65.180458 242.915390,60.476040 
	C242.494507,55.241711 238.893036,52.477810 234.168091,50.959751 
	C231.065872,49.963051 227.879013,49.160400 224.896576,47.882282 
	C222.515656,46.861942 222.013412,44.427063 224.491409,43.501034 
	C226.487228,42.755188 230.353775,42.938683 231.308533,44.238712 
	C234.317688,48.336151 237.942108,46.697437 241.677704,46.841866 
	C242.712280,42.186420 240.753220,38.745049 237.131317,37.249611 
	C233.480728,35.742332 229.247620,35.270111 225.237061,35.095551 
	C218.669052,34.809673 213.545258,39.193642 213.017242,44.868954 
	C212.532349,50.081017 216.372574,54.343449 222.858307,56.020760 
	C225.698395,56.755249 228.517349,57.650253 231.226456,58.763134 
	C232.014801,59.086983 232.751297,60.383781 232.831284,61.294361 
	C232.886765,61.925755 231.901321,63.009468 231.161560,63.271347 
	C229.808182,63.750446 228.292435,63.770813 226.028534,63.922573 
M252.612289,35.002502 
	C251.418961,35.723286 249.200958,36.423553 249.186050,37.167934 
	C248.963623,48.275414 249.032303,59.388725 249.032303,70.616074 
	C252.610580,70.616074 255.644348,70.616074 258.702148,70.616074 
	C258.702148,58.645962 258.702148,47.060974 258.702148,35.000706 
	C256.784790,35.000706 255.160248,35.000706 252.612289,35.002502 
M255.174286,31.901367 
	C260.432617,29.068014 262.049530,24.706123 258.392731,22.192307 
	C256.523071,20.907061 253.246216,20.733019 250.956146,21.352806 
	C249.621994,21.713888 248.139313,24.669157 248.205811,26.400278 
	C248.339142,29.871347 250.751755,31.859097 255.174286,31.901367 
M101.956642,36.085567 
	C101.637299,37.190525 101.317947,38.295483 100.998604,39.400436 
	C103.042847,39.230949 105.176422,39.352356 107.092049,38.764061 
	C107.992661,38.487480 108.473953,36.845512 109.939674,34.611408 
	C106.487823,35.284481 104.619949,35.648697 101.956642,36.085567 
z"/>
<path fill="#0DB760" opacity="1.000000" stroke="none" 
	d="
M1.000000,11.333333 
	C7.398554,9.666657 13.741132,7.791711 20.208408,7.123291 
	C30.653938,6.043703 39.401913,9.272297 45.933643,18.268162 
	C52.092548,26.750546 59.052944,34.650982 65.941895,43.154434 
	C73.607430,33.872501 81.363586,24.818392 88.662376,15.409489 
	C90.524811,13.008630 92.135689,11.843678 95.086281,11.956072 
	C99.545982,12.125951 104.016930,12.000410 108.391495,12.000410 
	C109.893280,15.962690 108.368637,17.475864 104.917946,18.139814 
	C102.295799,18.644341 99.776031,19.680899 97.444809,21.374134 
	C101.001068,20.614265 104.557335,19.854399 108.113594,19.094530 
	C108.464478,19.367332 108.815361,19.640137 109.166237,19.912939 
	C108.294960,20.936249 107.621033,22.422110 106.514565,22.894203 
	C103.467514,24.194294 100.239304,25.069794 97.002136,26.801910 
	C96.984764,28.675184 97.048019,29.859802 97.111267,31.044422 
	C97.251755,31.341064 97.392242,31.637705 97.681641,32.378380 
	C97.567741,33.919945 97.304932,35.017479 97.042114,36.115009 
	C97.430893,39.820091 97.819672,43.525177 98.283821,47.948544 
	C100.833565,48.838005 105.132294,43.343521 108.856659,48.600830 
	C104.741226,49.753933 101.088165,50.777489 97.435104,51.801041 
	C97.514870,52.174545 97.594635,52.548050 97.674408,52.921558 
	C101.352127,52.297894 105.029846,51.674229 108.707565,51.050564 
	C108.916206,51.734604 109.124847,52.418648 109.333488,53.102688 
	C105.535164,54.483421 101.736839,55.864155 97.938515,57.244888 
	C98.014763,57.551170 98.091019,57.857452 98.167267,58.163738 
	C101.528038,57.471893 104.888809,56.780048 109.669334,55.795940 
	C106.957520,62.348724 100.277122,59.560661 96.393097,63.890690 
	C101.087944,62.880951 104.788788,62.084995 108.484901,61.290058 
	C110.596031,66.259155 105.817513,64.764656 104.157654,65.771057 
	C102.196701,66.960014 99.658707,67.197258 96.695679,68.038841 
	C99.928787,70.066940 104.067039,65.003418 105.528160,70.589050 
	C103.034035,71.381264 100.471817,72.195099 97.909599,73.008942 
	C97.981384,73.320045 98.053169,73.631149 98.124954,73.942253 
	C101.579651,73.274895 105.034348,72.607529 108.489044,71.940163 
	C108.697723,72.446449 108.906403,72.952728 109.115082,73.459015 
	C106.818581,78.131851 100.540245,75.709724 96.581238,79.538956 
	C101.001038,78.608925 104.546501,77.862869 108.079102,77.119530 
	C108.854012,80.078613 108.854012,80.078613 97.303154,84.346588 
	C98.014359,84.308189 98.726204,84.278893 99.436607,84.229187 
	C100.428658,84.159767 101.421181,84.090912 102.410835,83.994408 
	C109.342316,83.318481 109.342094,83.316216 108.676010,90.663345 
	C102.323242,90.663345 95.936127,90.663345 88.982491,90.663345 
	C88.982491,75.603142 88.982491,60.741192 88.982491,45.879242 
	C88.621941,45.733250 88.261391,45.587261 87.900841,45.441273 
	C80.812202,53.975227 73.723564,62.509182 66.020332,71.783043 
	C58.459644,62.628857 51.200417,53.839661 43.128456,44.066441 
	C43.128456,60.289547 43.128456,75.300652 43.128456,90.651611 
	C36.363495,90.651611 30.111073,90.651611 23.225016,90.651611 
	C23.154217,89.042892 23.012146,87.292465 23.010277,85.541893 
	C22.993019,69.385399 23.001476,53.228886 22.999306,37.072380 
	C22.998154,28.483635 20.265636,24.391296 12.378717,21.156546 
	C11.245375,20.691715 10.106497,20.240376 7.708444,19.274702 
	C10.657775,17.617472 12.498007,16.583445 14.338238,15.549417 
	C14.349929,15.135332 14.361620,14.721247 14.373311,14.307161 
	C10.213864,13.871346 6.054417,13.435530 1.447485,12.999857 
	C1.000000,12.555555 1.000000,12.111111 1.000000,11.333333 
z"/>
<path fill="#0DB760" opacity="1.000000" stroke="none" 
	d="
M279.073975,88.092484 
	C271.734039,86.796982 267.652252,82.683121 266.140564,75.323410 
	C270.551788,75.352058 274.490601,73.516930 278.357361,78.373146 
	C282.144165,83.128929 290.395325,79.737656 292.324982,73.223473 
	C292.824219,71.538124 292.903442,69.728355 293.072021,68.642632 
	C288.836731,69.785683 284.793884,71.353317 280.620056,71.877029 
	C275.898956,72.469398 272.027588,69.835434 269.034515,66.428192 
	C263.113068,59.687321 263.789825,46.856796 267.825623,41.876247 
	C270.773682,38.238064 273.835815,34.448776 279.647156,34.889847 
	C284.191559,35.234756 288.900116,34.301273 291.450348,40.652214 
	C291.773712,40.089462 292.097107,39.526711 292.420471,38.963959 
	C292.748901,37.789940 293.077332,36.615921 293.467743,35.220322 
	C296.354523,35.220322 299.304382,35.220322 302.999512,35.220322 
	C302.999512,38.725746 303.082611,42.153667 302.983795,45.576336 
	C302.702271,55.326851 302.616028,65.093781 301.946045,74.819328 
	C301.248474,84.945541 290.471893,91.488472 279.073975,88.092484 
M284.342072,62.996117 
	C289.738953,62.868210 292.134216,58.984512 292.390808,54.693810 
	C292.578308,51.558792 291.099487,47.604687 288.992737,45.233555 
	C286.344696,42.253208 282.203125,42.417484 278.724976,44.854889 
	C274.782593,47.617626 274.117188,51.890732 275.245056,55.942196 
	C276.295807,59.716557 278.586395,63.229237 284.342072,62.996117 
z"/>
<path fill="#0DB760" opacity="1.000000" stroke="none" 
	d="
M163.269470,64.232208 
	C158.739334,69.169395 153.429596,71.194122 147.116028,71.031738 
	C141.317947,70.882607 135.513031,71.000046 129.357498,71.000046 
	C129.357498,55.928219 129.357498,41.233971 129.357498,25.607183 
	C137.121353,26.062157 145.196472,24.907932 152.072083,27.260069 
	C169.006622,33.053352 174.676498,50.151268 163.269470,64.232208 
M138.999680,46.514153 
	C138.999680,51.920471 138.999680,57.326786 138.999680,62.781670 
	C146.279541,63.272900 152.965637,63.626179 156.875946,57.065166 
	C160.576065,50.856819 160.171066,43.997433 155.608643,38.650581 
	C151.614517,33.969749 145.468353,33.378422 138.999680,34.376034 
	C138.999680,38.281902 138.999680,41.902821 138.999680,46.514153 
z"/>
<path fill="#0DB760" opacity="1.000000" stroke="none" 
	d="
M184.260025,60.551041 
	C187.800674,64.382538 191.492950,64.545189 195.461975,62.034985 
	C198.473862,60.130112 202.353912,57.882114 204.523880,61.703133 
	C206.783844,65.682648 202.859100,68.324028 199.621521,70.054398 
	C189.102646,75.676384 172.131805,69.700935 172.792877,53.967972 
	C173.106232,46.510952 174.703140,40.436157 181.435669,36.975216 
	C188.300385,33.446316 195.433731,33.665123 202.006134,38.044319 
	C208.254028,42.207298 208.927231,48.661827 209.037918,55.954567 
	C200.160294,55.954567 191.746979,55.954567 182.778824,55.954567 
	C183.339905,57.805649 183.703766,59.006111 184.260025,60.551041 
M183.104050,47.962696 
	C183.776093,48.635426 184.423584,49.859070 185.124191,49.890282 
	C189.255707,50.074314 193.399582,49.980885 197.490891,49.980885 
	C198.957306,45.593090 196.060593,43.953030 193.256790,43.309662 
	C189.400665,42.424839 185.155914,42.057068 183.104050,47.962696 
z"/>
<path fill="#0DB760" opacity="1.000000" stroke="none" 
	d="
M343.428192,41.921993 
	C344.309723,51.587193 344.944580,60.939240 345.605194,70.670670 
	C341.661346,70.670670 338.737000,70.670670 334.999817,70.670670 
	C334.999817,64.528542 335.006317,58.274570 334.997864,52.020622 
	C334.990479,46.547440 332.052094,43.018345 327.515930,43.009331 
	C323.149323,43.000656 320.202606,46.227470 320.046539,51.692955 
	C319.871002,57.839069 320.006165,63.994061 320.006165,70.571472 
	C316.732574,70.571472 313.702087,70.571472 310.326660,70.571472 
	C310.326660,59.009174 310.326660,47.427139 310.326660,35.272469 
	C313.880646,35.772221 318.062653,32.593109 320.748840,37.730942 
	C330.072662,32.666092 338.404053,34.106838 343.428192,41.921993 
z"/>
<path fill="#0DB760" opacity="1.000000" stroke="none" 
	d="
M226.436462,63.952530 
	C228.292435,63.770813 229.808182,63.750446 231.161560,63.271347 
	C231.901321,63.009468 232.886765,61.925755 232.831284,61.294361 
	C232.751297,60.383781 232.014801,59.086983 231.226456,58.763134 
	C228.517349,57.650253 225.698395,56.755249 222.858307,56.020760 
	C216.372574,54.343449 212.532349,50.081017 213.017242,44.868954 
	C213.545258,39.193642 218.669052,34.809673 225.237061,35.095551 
	C229.247620,35.270111 233.480728,35.742332 237.131317,37.249611 
	C240.753220,38.745049 242.712280,42.186420 241.677704,46.841866 
	C237.942108,46.697437 234.317688,48.336151 231.308533,44.238712 
	C230.353775,42.938683 226.487228,42.755188 224.491409,43.501034 
	C222.013412,44.427063 222.515656,46.861942 224.896576,47.882282 
	C227.879013,49.160400 231.065872,49.963051 234.168091,50.959751 
	C238.893036,52.477810 242.494507,55.241711 242.915390,60.476040 
	C243.293671,65.180458 239.663315,69.178741 234.190536,71.040932 
	C224.035461,74.496323 212.776505,69.211891 212.655563,59.791916 
	C218.307129,57.234188 222.454010,59.595745 226.436462,63.952530 
z"/>
<path fill="#0DB760" opacity="1.000000" stroke="none" 
	d="
M253.074005,35.001602 
	C255.160248,35.000706 256.784790,35.000706 258.702148,35.000706 
	C258.702148,47.060974 258.702148,58.645962 258.702148,70.616074 
	C255.644348,70.616074 252.610580,70.616074 249.032303,70.616074 
	C249.032303,59.388725 248.963623,48.275414 249.186050,37.167934 
	C249.200958,36.423553 251.418961,35.723286 253.074005,35.001602 
z"/>
<path fill="#0DB760" opacity="1.000000" stroke="none" 
	d="
M254.785492,31.936890 
	C250.751755,31.859097 248.339142,29.871347 248.205811,26.400278 
	C248.139313,24.669157 249.621994,21.713888 250.956146,21.352806 
	C253.246216,20.733019 256.523071,20.907061 258.392731,22.192307 
	C262.049530,24.706123 260.432617,29.068014 254.785492,31.936890 
z"/>
<path fill="#0DB760" opacity="1.000000" stroke="none" 
	d="
M97.429291,36.049782 
	C97.304932,35.017479 97.567741,33.919945 97.914566,32.494511 
	C101.495316,31.318926 104.992050,30.471243 108.488777,29.623560 
	C108.676514,30.166149 108.864250,30.708738 109.051979,31.251326 
	C106.740501,35.695133 101.233658,33.751133 97.429291,36.049782 
z"/>
<path fill="#0DB760" opacity="1.000000" stroke="none" 
	d="
M97.448975,30.875725 
	C97.048019,29.859802 96.984764,28.675184 96.982018,27.187834 
	C99.197571,26.325848 101.327553,25.520130 103.516830,25.297417 
	C104.885796,25.158152 106.344116,25.897253 107.762337,26.242214 
	C107.729485,26.763306 107.696632,27.284399 107.663780,27.805492 
	C104.371414,28.772669 101.079048,29.739847 97.448975,30.875725 
z"/>
<path fill="#0DB660" opacity="1.000000" stroke="none" 
	d="
M102.354355,36.049240 
	C104.619949,35.648697 106.487823,35.284481 109.939674,34.611408 
	C108.473953,36.845512 107.992661,38.487480 107.092049,38.764061 
	C105.176422,39.352356 103.042847,39.230949 100.998604,39.400436 
	C101.317947,38.295483 101.637299,37.190525 102.354355,36.049240 
z"/>
<path fill="#000000" opacity="1.000000" stroke="none" 
	d="
M283.938049,62.997231 
	C278.586395,63.229237 276.295807,59.716557 275.245056,55.942196 
	C274.117188,51.890732 274.782593,47.617626 278.724976,44.854889 
	C282.203125,42.417484 286.344696,42.253208 288.992737,45.233555 
	C291.099487,47.604687 292.578308,51.558792 292.390808,54.693810 
	C292.134216,58.984512 289.738953,62.868210 283.938049,62.997231 
z"/>
<path fill="#000000" opacity="1.000000" stroke="none" 
	d="
M138.999680,46.018948 
	C138.999680,41.902821 138.999680,38.281902 138.999680,34.376034 
	C145.468353,33.378422 151.614517,33.969749 155.608643,38.650581 
	C160.171066,43.997433 160.576065,50.856819 156.875946,57.065166 
	C152.965637,63.626179 146.279541,63.272900 138.999680,62.781670 
	C138.999680,57.326786 138.999680,51.920471 138.999680,46.018948 
z"/>
<path fill="#000000" opacity="1.000000" stroke="none" 
	d="
M183.243134,47.568687 
	C185.155914,42.057068 189.400665,42.424839 193.256790,43.309662 
	C196.060593,43.953030 198.957306,45.593090 197.490891,49.980885 
	C193.399582,49.980885 189.255707,50.074314 185.124191,49.890282 
	C184.423584,49.859070 183.776093,48.635426 183.243134,47.568687 
z"/>
</svg>